STARTFONT 2.1
FONT -Misc-VCR-Medium-R-Normal-Inline-18-170-75-75-C-140-ISO10646-1
SIZE 17 75 75
FONTBOUNDINGBOX 14 18 0 0
STARTPROPERTIES 17
POINT_SIZE 170
PIXEL_SIZE 18
RESOLUTION_X 75
RESOLUTION_Y 75
FONT_ASCENT 18
FONT_DESCENT 0
AVERAGE_WIDTH 140
CHARSET_REGISTRY "ISO10646"
CHARSET_ENCODING "1"
SPACING "C"
_GBDFED_INFO "Edited with gbdfed 1.6."
FOUNDRY "Misc"
FAMILY_NAME "VCR"
WEIGHT_NAME "Medium"
SLANT "R"
SETWIDTH_NAME "Normal"
ADD_STYLE_NAME "Inline"
ENDPROPERTIES
CHARS 95
STARTCHAR SPACE
ENCODING 32
SWIDTH 790 0
DWIDTH 14 0
BBX 14 18 0 0
BITMAP
0000
0000
0000
0000
0000
0000
0000
0000
0000
0000
0000
0000
0000
0000
0000
0000
0000
0000
ENDCHAR
STARTCHAR EXCLAMATION MARK
ENCODING 33
SWIDTH 790 0
DWIDTH 14 0
BBX 14 18 0 0
BITMAP
0000
0300
0300
0300
0300
0300
0300
0300
0300
0300
0300
0300
0000
0000
0000
0300
0300
0000
ENDCHAR
STARTCHAR QUOTATION MARK
ENCODING 34
SWIDTH 790 0
DWIDTH 14 0
BBX 14 18 0 0
BITMAP
0000
0000
0840
1CE0
0C60
0420
0420
0840
0000
0000
0000
0000
0000
0000
0000
0000
0000
0000
ENDCHAR
STARTCHAR NUMBER SIGN
ENCODING 35
SWIDTH 790 0
DWIDTH 14 0
BBX 14 18 0 0
BITMAP
0000
0000
00C0
0CC0
0CF0
0FF0
3FC0
3CC0
0CC0
0CF0
0FF0
3FC0
3CC0
0CC0
0C00
0000
0000
0000
ENDCHAR
STARTCHAR DOLLAR SIGN
ENCODING 36
SWIDTH 790 0
DWIDTH 14 0
BBX 14 18 0 0
BITMAP
0000
0300
0300
0FC0
1FE0
3B70
3B30
1F00
07C0
03E0
3370
3B70
1FE0
0FC0
0300
0300
0000
0000
ENDCHAR
STARTCHAR PERCENT SIGN
ENCODING 37
SWIDTH 790 0
DWIDTH 14 0
BBX 14 18 0 0
BITMAP
0000
0000
0000
0000
0000
1830
1870
00E0
01C0
0380
0700
0E00
1C00
3860
3060
0000
0000
0000
ENDCHAR
STARTCHAR AMPERSAND
ENCODING 38
SWIDTH 790 0
DWIDTH 14 0
BBX 14 18 0 0
BITMAP
0000
0700
0F80
18C0
18C0
18C0
18C0
0D80
0F00
1F00
3B80
31B0
31B0
30E0
38E0
1FF0
0F30
0000
ENDCHAR
STARTCHAR APOSTROPHE
ENCODING 39
SWIDTH 790 0
DWIDTH 14 0
BBX 14 18 0 0
BITMAP
0000
0000
0100
0380
0180
0080
0080
0100
0000
0000
0000
0000
0000
0000
0000
0000
0000
0000
ENDCHAR
STARTCHAR LEFT PARENTHESIS
ENCODING 40
SWIDTH 790 0
DWIDTH 14 0
BBX 14 18 0 0
BITMAP
0000
0000
0000
0000
0060
00C0
0180
0300
0300
0300
0300
0300
0300
0300
0180
00C0
0060
0000
ENDCHAR
STARTCHAR RIGHT PARENTHESIS
ENCODING 41
SWIDTH 790 0
DWIDTH 14 0
BBX 14 18 0 0
BITMAP
0000
0000
0000
0000
0C00
0600
0300
0180
0180
0180
0180
0180
0180
0180
0300
0600
0C00
0000
ENDCHAR
STARTCHAR ASTERISK
ENCODING 42
SWIDTH 790 0
DWIDTH 14 0
BBX 14 18 0 0
BITMAP
0000
0000
0000
0000
2310
3330
1B60
0FC0
0780
0780
0FC0
1B60
3330
2310
0000
0000
0000
0000
ENDCHAR
STARTCHAR PLUS SIGN
ENCODING 43
SWIDTH 790 0
DWIDTH 14 0
BBX 14 18 0 0
BITMAP
0000
0000
0000
0000
0300
0300
0300
0300
3FF0
3FF0
0300
0300
0300
0300
0000
0000
0000
0000
ENDCHAR
STARTCHAR COMMA
ENCODING 44
SWIDTH 790 0
DWIDTH 14 0
BBX 14 18 0 0
BITMAP
0000
0000
0000
0000
0000
0000
0000
0000
0000
0000
0000
0000
0000
0300
0300
0600
0C00
0000
ENDCHAR
STARTCHAR HYPHEN-MINUS
ENCODING 45
SWIDTH 790 0
DWIDTH 14 0
BBX 14 18 0 0
BITMAP
0000
0000
0000
0000
0000
0000
0000
0000
0FE0
0FE0
0000
0000
0000
0000
0000
0000
0000
0000
ENDCHAR
STARTCHAR FULL STOP
ENCODING 46
SWIDTH 790 0
DWIDTH 14 0
BBX 14 18 0 0
BITMAP
0000
0000
0000
0000
0000
0000
0000
0000
0000
0000
0000
0000
0000
0000
0000
00C0
00C0
0000
ENDCHAR
STARTCHAR SOLIDUS
ENCODING 47
SWIDTH 790 0
DWIDTH 14 0
BBX 14 18 0 0
BITMAP
0000
0000
0000
0000
0000
0030
0070
00E0
01C0
0380
0700
0E00
1C00
3800
3000
0000
0000
0000
ENDCHAR
STARTCHAR DIGIT ZERO
ENCODING 48
SWIDTH 790 0
DWIDTH 14 0
BBX 14 18 0 0
BITMAP
0000
0000
0000
0FC0
1FE0
3870
3030
3030
3030
3030
3030
3030
3030
3030
3870
1FE0
0FC0
0000
ENDCHAR
STARTCHAR DIGIT ONE
ENCODING 49
SWIDTH 790 0
DWIDTH 14 0
BBX 14 18 0 0
BITMAP
0000
0000
0000
0300
0700
0F00
0F00
0300
0300
0300
0300
0300
0300
0300
0300
0FC0
0FC0
0000
ENDCHAR
STARTCHAR DIGIT TWO
ENCODING 50
SWIDTH 790 0
DWIDTH 14 0
BBX 14 18 0 0
BITMAP
0000
0000
0000
0FC0
1FE0
3870
3030
0030
0070
00E0
01C0
0380
0700
0E00
1C00
3FF0
3FF0
0000
ENDCHAR
STARTCHAR DIGIT THREE
ENCODING 51
SWIDTH 790 0
DWIDTH 14 0
BBX 14 18 0 0
BITMAP
0000
0000
0000
0FC0
1FE0
3870
3030
0030
0070
03E0
03E0
0070
0030
3030
3870
1FE0
0FC0
0000
ENDCHAR
STARTCHAR DIGIT FOUR
ENCODING 52
SWIDTH 790 0
DWIDTH 14 0
BBX 14 18 0 0
BITMAP
0000
0000
0000
00C0
01C0
03C0
07C0
0EC0
1CC0
38C0
30C0
3FF0
3FF0
00C0
00C0
00C0
00C0
0000
ENDCHAR
STARTCHAR DIGIT FIVE
ENCODING 53
SWIDTH 790 0
DWIDTH 14 0
BBX 14 18 0 0
BITMAP
0000
0000
0000
3FF0
3FF0
3000
3000
3FC0
3FE0
0070
0030
0030
0030
3030
3870
1FE0
0FC0
0000
ENDCHAR
STARTCHAR DIGIT SIX
ENCODING 54
SWIDTH 790 0
DWIDTH 14 0
BBX 14 18 0 0
BITMAP
0000
0000
0000
0FC0
1FE0
3870
3030
3000
3000
3FC0
3FE0
3070
3030
3030
3870
1FE0
0FC0
0000
ENDCHAR
STARTCHAR DIGIT SEVEN
ENCODING 55
SWIDTH 790 0
DWIDTH 14 0
BBX 14 18 0 0
BITMAP
0000
0000
0000
3FF0
3FF0
0030
0070
00E0
01C0
0380
0300
0300
0300
0300
0300
0300
0300
0000
ENDCHAR
STARTCHAR DIGIT EIGHT
ENCODING 56
SWIDTH 790 0
DWIDTH 14 0
BBX 14 18 0 0
BITMAP
0000
0000
0000
0FC0
1FE0
3870
3030
3030
3870
1FE0
1FE0
3870
3030
3030
3870
1FE0
0FC0
0000
ENDCHAR
STARTCHAR DIGIT NINE
ENCODING 57
SWIDTH 790 0
DWIDTH 14 0
BBX 14 18 0 0
BITMAP
0000
0000
0000
0FC0
1FE0
3870
3030
3030
3830
1FF0
0FF0
0030
0030
3030
3870
1FE0
0FC0
0000
ENDCHAR
STARTCHAR COLON
ENCODING 58
SWIDTH 790 0
DWIDTH 14 0
BBX 14 18 0 0
BITMAP
0000
0000
0000
0000
0000
0300
0300
0000
0000
0000
0000
0000
0000
0300
0300
0000
0000
0000
ENDCHAR
STARTCHAR SEMICOLON
ENCODING 59
SWIDTH 790 0
DWIDTH 14 0
BBX 14 18 0 0
BITMAP
0000
0000
0000
0000
0000
0300
0300
0000
0000
0000
0000
0300
0300
0600
0C00
0000
0000
0000
ENDCHAR
STARTCHAR LESS-THAN SIGN
ENCODING 60
SWIDTH 790 0
DWIDTH 14 0
BBX 14 18 0 0
BITMAP
0000
0020
0060
00E0
01C0
0380
0700
0E00
1C00
1C00
0E00
0700
0380
01C0
00E0
0060
0020
0000
ENDCHAR
STARTCHAR EQUALS SIGN
ENCODING 61
SWIDTH 790 0
DWIDTH 14 0
BBX 14 18 0 0
BITMAP
0000
0000
0000
0000
0000
1FE0
1FE0
0000
0000
0000
0000
1FE0
1FE0
0000
0000
0000
0000
0000
ENDCHAR
STARTCHAR GREATER-THAN SIGN
ENCODING 62
SWIDTH 790 0
DWIDTH 14 0
BBX 14 18 0 0
BITMAP
0000
1000
1800
1C00
0E00
0700
0380
01C0
00E0
00E0
01C0
0380
0700
0E00
1C00
1800
1000
0000
ENDCHAR
STARTCHAR QUESTION MARK
ENCODING 63
SWIDTH 790 0
DWIDTH 14 0
BBX 14 18 0 0
BITMAP
0000
0000
0000
0FC0
1FE0
3870
3030
0030
0070
00E0
01C0
0380
0300
0000
0000
0300
0300
0000
ENDCHAR
STARTCHAR COMMERCIAL AT
ENCODING 64
SWIDTH 790 0
DWIDTH 14 0
BBX 14 18 0 0
BITMAP
0000
0000
0FC0
1020
2010
2310
2790
2490
2490
2490
2790
2390
20F0
2000
2000
1000
0FE0
0000
ENDCHAR
STARTCHAR LATIN CAPITAL LETTER A
ENCODING 65
SWIDTH 790 0
DWIDTH 14 0
BBX 14 18 0 0
BITMAP
0000
0000
0000
0300
0780
0FC0
1CE0
3870
3030
3030
3030
3FF0
3FF0
3030
3030
3030
3030
0000
ENDCHAR
STARTCHAR LATIN CAPITAL LETTER B
ENCODING 66
SWIDTH 790 0
DWIDTH 14 0
BBX 14 18 0 0
BITMAP
0000
0000
0000
3FC0
3FE0
3070
3030
3030
3070
3FE0
3FE0
3070
3030
3030
3070
3FE0
3FC0
0000
ENDCHAR
STARTCHAR LATIN CAPITAL LETTER C
ENCODING 67
SWIDTH 790 0
DWIDTH 14 0
BBX 14 18 0 0
BITMAP
0000
0000
0000
0FC0
1FE0
3870
3030
3000
3000
3000
3000
3000
3000
3030
3870
1FE0
0FC0
0000
ENDCHAR
STARTCHAR LATIN CAPITAL LETTER D
ENCODING 68
SWIDTH 790 0
DWIDTH 14 0
BBX 14 18 0 0
BITMAP
0000
0000
0000
3F00
3F80
31C0
30E0
3070
3030
3030
3030
3030
3070
30E0
31C0
3F80
3F00
0000
ENDCHAR
STARTCHAR LATIN CAPITAL LETTER E
ENCODING 69
SWIDTH 790 0
DWIDTH 14 0
BBX 14 18 0 0
BITMAP
0000
0000
0000
3FF0
3FF0
3000
3000
3000
3000
3FC0
3FC0
3000
3000
3000
3000
3FF0
3FF0
0000
ENDCHAR
STARTCHAR LATIN CAPITAL LETTER F
ENCODING 70
SWIDTH 790 0
DWIDTH 14 0
BBX 14 18 0 0
BITMAP
0000
0000
0000
3FF0
3FF0
3000
3000
3000
3000
3FC0
3FC0
3000
3000
3000
3000
3000
3000
0000
ENDCHAR
STARTCHAR LATIN CAPITAL LETTER G
ENCODING 71
SWIDTH 790 0
DWIDTH 14 0
BBX 14 18 0 0
BITMAP
0000
0000
0000
0FC0
1FE0
3860
3030
3030
3000
3000
33F0
33F0
3030
3030
3830
1FF0
0FF0
0000
ENDCHAR
STARTCHAR LATIN CAPITAL LETTER H
ENCODING 72
SWIDTH 790 0
DWIDTH 14 0
BBX 14 18 0 0
BITMAP
0000
0000
0000
0000
3030
3030
3030
3030
3030
3FF0
3FF0
3030
3030
3030
3030
3030
3030
0000
ENDCHAR
STARTCHAR LATIN CAPITAL LETTER I
ENCODING 73
SWIDTH 790 0
DWIDTH 14 0
BBX 14 18 0 0
BITMAP
0000
0000
0000
0FC0
0FC0
0300
0300
0300
0300
0300
0300
0300
0300
0300
0300
0FC0
0FC0
0000
ENDCHAR
STARTCHAR LATIN CAPITAL LETTER J
ENCODING 74
SWIDTH 790 0
DWIDTH 14 0
BBX 14 18 0 0
BITMAP
0000
0000
0000
03F0
03F0
00C0
00C0
00C0
00C0
00C0
00C0
00C0
00C0
30C0
39C0
1F80
0F00
0000
ENDCHAR
STARTCHAR LATIN CAPITAL LETTER K
ENCODING 75
SWIDTH 790 0
DWIDTH 14 0
BBX 14 18 0 0
BITMAP
0000
0000
0000
3030
3070
30E0
31C0
3380
3700
3E00
3E00
3700
3380
31C0
30E0
3070
3030
0000
ENDCHAR
STARTCHAR LATIN CAPITAL LETTER L
ENCODING 76
SWIDTH 790 0
DWIDTH 14 0
BBX 14 18 0 0
BITMAP
0000
0000
0000
3000
3000
3000
3000
3000
3000
3000
3000
3000
3000
3000
3000
3FF0
3FF0
0000
ENDCHAR
STARTCHAR LATIN CAPITAL LETTER M
ENCODING 77
SWIDTH 790 0
DWIDTH 14 0
BBX 14 18 0 0
BITMAP
0000
0000
0000
3030
3870
3CF0
3FF0
37B0
3330
3330
3030
3030
3030
3030
3030
3030
3030
0000
ENDCHAR
STARTCHAR LATIN CAPITAL LETTER N
ENCODING 78
SWIDTH 790 0
DWIDTH 14 0
BBX 14 18 0 0
BITMAP
0000
0000
0000
3030
3830
3C30
3C30
3630
3630
3330
3330
31B0
31B0
30F0
30F0
3070
3030
0000
ENDCHAR
STARTCHAR LATIN CAPITAL LETTER O
ENCODING 79
SWIDTH 790 0
DWIDTH 14 0
BBX 14 18 0 0
BITMAP
0000
0000
0000
0FC0
1FE0
3870
3030
3030
3030
3030
3030
3030
3030
3030
3870
1FE0
0FC0
0000
ENDCHAR
STARTCHAR LATIN CAPITAL LETTER P
ENCODING 80
SWIDTH 790 0
DWIDTH 14 0
BBX 14 18 0 0
BITMAP
0000
0000
0000
3FC0
3FE0
3070
3030
3030
3070
3FE0
3FC0
3000
3000
3000
3000
3000
3000
0000
ENDCHAR
STARTCHAR LATIN CAPITAL LETTER Q
ENCODING 81
SWIDTH 790 0
DWIDTH 14 0
BBX 14 18 0 0
BITMAP
0000
0000
0000
0FC0
1FE0
3870
3030
3030
3030
3030
3030
3330
33B0
31F0
38E0
1FF0
0FB0
0000
ENDCHAR
STARTCHAR LATIN CAPITAL LETTER R
ENCODING 82
SWIDTH 790 0
DWIDTH 14 0
BBX 14 18 0 0
BITMAP
0000
0000
0000
3FC0
3FE0
3070
3030
3030
3070
3FE0
3FC0
3700
3380
31C0
30E0
3070
3030
0000
ENDCHAR
STARTCHAR LATIN CAPITAL LETTER S
ENCODING 83
SWIDTH 790 0
DWIDTH 14 0
BBX 14 18 0 0
BITMAP
0000
0000
0000
0FE0
1FF0
3830
3000
3000
3800
1FC0
0FE0
0070
0030
0030
3070
3FE0
1FC0
0000
ENDCHAR
STARTCHAR LATIN CAPITAL LETTER T
ENCODING 84
SWIDTH 790 0
DWIDTH 14 0
BBX 14 18 0 0
BITMAP
0000
0000
0000
3FF0
3FF0
0300
0300
0300
0300
0300
0300
0300
0300
0300
0300
0300
0300
0000
ENDCHAR
STARTCHAR LATIN CAPITAL LETTER U
ENCODING 85
SWIDTH 790 0
DWIDTH 14 0
BBX 14 18 0 0
BITMAP
0000
0000
0000
3030
3030
3030
3030
3030
3030
3030
3030
3030
3030
3030
3870
1FE0
0FC0
0000
ENDCHAR
STARTCHAR LATIN CAPITAL LETTER V
ENCODING 86
SWIDTH 790 0
DWIDTH 14 0
BBX 14 18 0 0
BITMAP
0000
0000
0000
3030
3030
3030
3030
3030
3030
3030
3030
3030
3870
1CE0
0FC0
0780
0300
0000
ENDCHAR
STARTCHAR LATIN CAPITAL LETTER W
ENCODING 87
SWIDTH 790 0
DWIDTH 14 0
BBX 14 18 0 0
BITMAP
0000
0000
0000
3030
3030
3030
3030
3030
3030
3330
3330
3330
3330
3330
3FF0
1FE0
0CC0
0000
ENDCHAR
STARTCHAR LATIN CAPITAL LETTER X
ENCODING 88
SWIDTH 790 0
DWIDTH 14 0
BBX 14 18 0 0
BITMAP
0000
0000
0000
3030
3030
3030
3870
1CE0
0FC0
0780
0780
0FC0
1CE0
3870
3030
3030
3030
0000
ENDCHAR
STARTCHAR LATIN CAPITAL LETTER Y
ENCODING 89
SWIDTH 790 0
DWIDTH 14 0
BBX 14 18 0 0
BITMAP
0000
0000
0000
3030
3030
3030
3030
3030
3870
1CE0
0FC0
0780
0300
0300
0300
0300
0300
0000
ENDCHAR
STARTCHAR LATIN CAPITAL LETTER Z
ENCODING 90
SWIDTH 790 0
DWIDTH 14 0
BBX 14 18 0 0
BITMAP
0000
0000
0000
3FF0
3FF0
0030
0070
00E0
01C0
0380
0700
0E00
1C00
3800
3000
3FF0
3FF0
0000
ENDCHAR
STARTCHAR LEFT SQUARE BRACKET
ENCODING 91
SWIDTH 790 0
DWIDTH 14 0
BBX 14 18 0 0
BITMAP
0000
1F80
1F80
1800
1800
1800
1800
1800
1800
1800
1800
1800
1800
1800
1800
1F80
1F80
0000
ENDCHAR
STARTCHAR REVERSE SOLIDUS
ENCODING 92
SWIDTH 790 0
DWIDTH 14 0
BBX 14 18 0 0
BITMAP
0000
0000
0000
0000
0000
3000
3800
1C00
0E00
0700
0380
01C0
00E0
0070
0030
0000
0000
0000
ENDCHAR
STARTCHAR RIGHT SQUARE BRACKET
ENCODING 93
SWIDTH 790 0
DWIDTH 14 0
BBX 14 18 0 0
BITMAP
0000
07E0
07E0
0060
0060
0060
0060
0060
0060
0060
0060
0060
0060
0060
0060
07E0
07E0
0000
ENDCHAR
STARTCHAR CIRCUMFLEX ACCENT
ENCODING 94
SWIDTH 790 0
DWIDTH 14 0
BBX 14 18 0 0
BITMAP
0000
0300
0780
0CC0
1860
3030
2010
0000
0000
0000
0000
0000
0000
0000
0000
0000
0000
0000
ENDCHAR
STARTCHAR LOW LINE
ENCODING 95
SWIDTH 790 0
DWIDTH 14 0
BBX 14 18 0 0
BITMAP
0000
0000
0000
0000
0000
0000
0000
0000
0000
0000
0000
0000
0000
0000
0000
3FF0
3FF0
0000
ENDCHAR
STARTCHAR GRAVE ACCENT
ENCODING 96
SWIDTH 790 0
DWIDTH 14 0
BBX 14 18 0 0
BITMAP
0000
0000
0200
0700
0600
0400
0400
0200
0000
0000
0000
0000
0000
0000
0000
0000
0000
0000
ENDCHAR
STARTCHAR LATIN SMALL LETTER A
ENCODING 97
SWIDTH 790 0
DWIDTH 14 0
BBX 14 18 0 0
BITMAP
0000
0000
0000
0000
0000
0FC0
0FE0
0070
0030
0FB0
1FF0
3870
3030
3030
3870
1FF0
0FB0
0000
ENDCHAR
STARTCHAR LATIN SMALL LETTER B
ENCODING 98
SWIDTH 790 0
DWIDTH 14 0
BBX 14 18 0 0
BITMAP
0000
0000
0000
3000
3000
3000
3380
37C0
3EE0
3C70
3830
3830
3830
3C70
3EE0
37C0
3380
0000
ENDCHAR
STARTCHAR LATIN SMALL LETTER C
ENCODING 99
SWIDTH 790 0
DWIDTH 14 0
BBX 14 18 0 0
BITMAP
0000
0000
0000
0000
0000
0000
0FC0
1FE0
3870
3030
3030
3000
3000
3030
3870
1FE0
0FC0
0000
ENDCHAR
STARTCHAR LATIN SMALL LETTER D
ENCODING 100
SWIDTH 790 0
DWIDTH 14 0
BBX 14 18 0 0
BITMAP
0000
0000
0000
0030
0030
0030
0730
0FB0
1DF0
38F0
3070
3070
3070
38F0
1DF0
0FB0
0730
0000
ENDCHAR
STARTCHAR LATIN SMALL LETTER E
ENCODING 101
SWIDTH 790 0
DWIDTH 14 0
BBX 14 18 0 0
BITMAP
0000
0000
0000
0000
0000
0000
0FC0
1FE0
3870
3030
3FF0
3FE0
3000
3000
3870
1FE0
0FC0
0000
ENDCHAR
STARTCHAR LATIN SMALL LETTER F
ENCODING 102
SWIDTH 790 0
DWIDTH 14 0
BBX 14 18 0 0
BITMAP
0000
0000
0000
01E0
03E0
0300
0300
1FE0
1FE0
0300
0300
0300
0300
0300
0300
0300
0300
0000
ENDCHAR
STARTCHAR LATIN SMALL LETTER G
ENCODING 103
SWIDTH 790 0
DWIDTH 14 0
BBX 14 18 0 0
BITMAP
0000
0000
0000
0000
0000
0FC0
1FE0
3870
3030
3870
1FF0
0FB0
0030
0030
1870
1FE0
0FC0
0000
ENDCHAR
STARTCHAR LATIN SMALL LETTER H
ENCODING 104
SWIDTH 790 0
DWIDTH 14 0
BBX 14 18 0 0
BITMAP
0000
0000
0000
3000
3000
3000
3000
3380
37C0
3EE0
3C70
3830
3030
3030
3030
3030
3030
0000
ENDCHAR
STARTCHAR LATIN SMALL LETTER I
ENCODING 105
SWIDTH 790 0
DWIDTH 14 0
BBX 14 18 0 0
BITMAP
0000
0000
0000
0000
0300
0300
0000
0000
0F00
0F00
0300
0300
0300
0300
0380
01C0
00C0
0000
ENDCHAR
STARTCHAR LATIN SMALL LETTER J
ENCODING 106
SWIDTH 790 0
DWIDTH 14 0
BBX 14 18 0 0
BITMAP
0000
0000
00C0
00C0
0000
0000
03C0
03C0
00C0
00C0
00C0
00C0
00C0
00C0
01C0
0F80
0F00
0000
ENDCHAR
STARTCHAR LATIN SMALL LETTER K
ENCODING 107
SWIDTH 790 0
DWIDTH 14 0
BBX 14 18 0 0
BITMAP
0000
0000
0000
6000
6000
6000
6060
60E0
61C0
6380
6700
6E00
7F00
7B80
71C0
60E0
6060
0000
ENDCHAR
STARTCHAR LATIN SMALL LETTER L
ENCODING 108
SWIDTH 790 0
DWIDTH 14 0
BBX 14 18 0 0
BITMAP
0000
0000
0000
0300
0300
0300
0300
0300
0300
0300
0300
0300
0300
0300
0300
0300
0300
0000
ENDCHAR
STARTCHAR LATIN SMALL LETTER M
ENCODING 109
SWIDTH 790 0
DWIDTH 14 0
BBX 14 18 0 0
BITMAP
0000
0000
0000
0000
0000
0000
37C0
3FE0
3B70
3330
3330
3330
3330
3330
3330
3330
3330
0000
ENDCHAR
STARTCHAR LATIN SMALL LETTER N
ENCODING 110
SWIDTH 790 0
DWIDTH 14 0
BBX 14 18 0 0
BITMAP
0000
0000
0000
0000
0000
0000
37C0
3FE0
3870
3030
3030
3030
3030
3030
3030
3030
3030
0000
ENDCHAR
STARTCHAR LATIN SMALL LETTER O
ENCODING 111
SWIDTH 790 0
DWIDTH 14 0
BBX 14 18 0 0
BITMAP
0000
0000
0000
0000
0000
0000
0FC0
1FE0
3870
3030
3030
3030
3030
3030
3870
1FE0
0FC0
0000
ENDCHAR
STARTCHAR LATIN SMALL LETTER P
ENCODING 112
SWIDTH 790 0
DWIDTH 14 0
BBX 14 18 0 0
BITMAP
0000
0000
0000
0000
0000
37C0
3FE0
3C70
3830
3830
3830
3C70
3FE0
37C0
3000
3000
3000
0000
ENDCHAR
STARTCHAR LATIN SMALL LETTER Q
ENCODING 113
SWIDTH 790 0
DWIDTH 14 0
BBX 14 18 0 0
BITMAP
0000
0000
0000
0000
0000
0FB0
1FF0
38F0
3070
3070
3070
38F0
1FF0
0FB0
0030
0030
0030
0000
ENDCHAR
STARTCHAR LATIN SMALL LETTER R
ENCODING 114
SWIDTH 790 0
DWIDTH 14 0
BBX 14 18 0 0
BITMAP
0000
0000
0000
0000
0000
0000
33C0
37E0
3E70
3C30
3800
3000
3000
3000
3000
3000
3000
0000
ENDCHAR
STARTCHAR LATIN SMALL LETTER S
ENCODING 115
SWIDTH 790 0
DWIDTH 14 0
BBX 14 18 0 0
BITMAP
0000
0000
0000
0000
0000
0000
0FC0
1FE0
3870
3830
1F00
07C0
01E0
3070
3870
1FE0
0FC0
0000
ENDCHAR
STARTCHAR LATIN SMALL LETTER T
ENCODING 116
SWIDTH 790 0
DWIDTH 14 0
BBX 14 18 0 0
BITMAP
0000
0000
0000
0300
0300
0300
0FC0
0FC0
0300
0300
0300
0300
0300
0300
0380
01C0
00C0
0000
ENDCHAR
STARTCHAR LATIN SMALL LETTER U
ENCODING 117
SWIDTH 790 0
DWIDTH 14 0
BBX 14 18 0 0
BITMAP
0000
0000
0000
0000
0000
0000
3030
3030
3030
3030
3030
3030
3030
3030
3870
1FE0
0FC0
0000
ENDCHAR
STARTCHAR LATIN SMALL LETTER V
ENCODING 118
SWIDTH 790 0
DWIDTH 14 0
BBX 14 18 0 0
BITMAP
0000
0000
0000
0000
0000
0000
3030
3030
3030
3030
3030
3030
3870
1CE0
0FC0
0780
0300
0000
ENDCHAR
STARTCHAR LATIN SMALL LETTER W
ENCODING 119
SWIDTH 790 0
DWIDTH 14 0
BBX 14 18 0 0
BITMAP
0000
0000
0000
0000
0000
0000
3030
3030
3030
3030
3330
3330
3330
3330
3B70
1FE0
0CC0
0000
ENDCHAR
STARTCHAR LATIN SMALL LETTER X
ENCODING 120
SWIDTH 790 0
DWIDTH 14 0
BBX 14 18 0 0
BITMAP
0000
0000
0000
0000
0000
0000
3030
3870
1CE0
0FC0
0780
0300
0780
0FC0
1CE0
3870
3030
0000
ENDCHAR
STARTCHAR LATIN SMALL LETTER Y
ENCODING 121
SWIDTH 790 0
DWIDTH 14 0
BBX 14 18 0 0
BITMAP
0000
0000
0000
0000
0000
3030
3030
3070
3070
30F0
39F0
1FB0
0F30
0030
0070
1FE0
1FC0
0000
ENDCHAR
STARTCHAR LATIN SMALL LETTER Z
ENCODING 122
SWIDTH 790 0
DWIDTH 14 0
BBX 14 18 0 0
BITMAP
0000
0000
0000
0000
0000
0000
3FF0
3FF0
0070
00E0
01C0
0380
0700
0E00
1C00
3FF0
3FF0
0000
ENDCHAR
STARTCHAR LEFT CURLY BRACKET
ENCODING 123
SWIDTH 790 0
DWIDTH 14 0
BBX 14 18 0 0
BITMAP
0000
0000
00C0
01C0
0300
0300
0300
0700
1C00
1C00
0700
0300
0300
0300
01C0
00C0
0000
0000
ENDCHAR
STARTCHAR VERTICAL LINE
ENCODING 124
SWIDTH 790 0
DWIDTH 14 0
BBX 14 18 0 0
BITMAP
0000
0300
0300
0300
0300
0300
0300
0300
0300
0300
0300
0300
0300
0300
0300
0300
0300
0000
ENDCHAR
STARTCHAR RIGHT CURLY BRACKET
ENCODING 125
SWIDTH 790 0
DWIDTH 14 0
BBX 14 18 0 0
BITMAP
0000
0000
0C00
0E00
0300
0300
0300
0380
00E0
00E0
0380
0300
0300
0300
0E00
0C00
0000
0000
ENDCHAR
STARTCHAR TILDE
ENCODING 126
SWIDTH 790 0
DWIDTH 14 0
BBX 14 18 0 0
BITMAP
0000
0000
0000
0000
0000
0000
0C00
1E10
3330
21E0
00C0
0000
0000
0000
0000
0000
0000
0000
ENDCHAR
ENDFONT
